<mxfile host="Electron" modified="2024-02-24T15:38:49.383Z" agent="Mozilla/5.0 (Windows NT 10.0; Win64; x64) AppleWebKit/537.36 (KHTML, like Gecko) draw.io/21.6.8 Chrome/114.0.5735.289 Electron/25.5.0 Safari/537.36" etag="8aJxlNotEQef6NOEYGUq" version="21.6.8" type="device">
  <diagram id="C5RBs43oDa-KdzZeNtuy" name="Page-1">
    <mxGraphModel dx="1687" dy="984" grid="1" gridSize="10" guides="1" tooltips="1" connect="1" arrows="1" fold="1" page="1" pageScale="1" pageWidth="827" pageHeight="1169" math="0" shadow="0">
      <root>
        <mxCell id="WIyWlLk6GJQsqaUBKTNV-0" />
        <mxCell id="WIyWlLk6GJQsqaUBKTNV-1" parent="WIyWlLk6GJQsqaUBKTNV-0" />
        <mxCell id="7DqschOIdNKJVq1KGkAt-8" value="" style="edgeStyle=orthogonalEdgeStyle;rounded=0;orthogonalLoop=1;jettySize=auto;html=1;" edge="1" parent="WIyWlLk6GJQsqaUBKTNV-1" source="7DqschOIdNKJVq1KGkAt-0" target="7DqschOIdNKJVq1KGkAt-7">
          <mxGeometry relative="1" as="geometry" />
        </mxCell>
        <mxCell id="7DqschOIdNKJVq1KGkAt-0" value="URL" style="rounded=1;whiteSpace=wrap;html=1;" vertex="1" parent="WIyWlLk6GJQsqaUBKTNV-1">
          <mxGeometry x="119" y="50" width="120" height="60" as="geometry" />
        </mxCell>
        <mxCell id="7DqschOIdNKJVq1KGkAt-14" value="" style="edgeStyle=orthogonalEdgeStyle;rounded=0;orthogonalLoop=1;jettySize=auto;html=1;" edge="1" parent="WIyWlLk6GJQsqaUBKTNV-1" source="7DqschOIdNKJVq1KGkAt-7" target="7DqschOIdNKJVq1KGkAt-13">
          <mxGeometry relative="1" as="geometry" />
        </mxCell>
        <mxCell id="7DqschOIdNKJVq1KGkAt-48" style="edgeStyle=orthogonalEdgeStyle;rounded=0;orthogonalLoop=1;jettySize=auto;html=1;exitX=0.5;exitY=1;exitDx=0;exitDy=0;" edge="1" parent="WIyWlLk6GJQsqaUBKTNV-1" source="7DqschOIdNKJVq1KGkAt-7" target="7DqschOIdNKJVq1KGkAt-9">
          <mxGeometry relative="1" as="geometry" />
        </mxCell>
        <mxCell id="7DqschOIdNKJVq1KGkAt-7" value="host match" style="rhombus;whiteSpace=wrap;html=1;rounded=0;" vertex="1" parent="WIyWlLk6GJQsqaUBKTNV-1">
          <mxGeometry x="339" y="40" width="80" height="80" as="geometry" />
        </mxCell>
        <mxCell id="7DqschOIdNKJVq1KGkAt-9" value="Host" style="swimlane;fontStyle=0;childLayout=stackLayout;horizontal=1;startSize=26;fillColor=none;horizontalStack=0;resizeParent=1;resizeParentMax=0;resizeLast=0;collapsible=1;marginBottom=0;html=1;" vertex="1" parent="WIyWlLk6GJQsqaUBKTNV-1">
          <mxGeometry x="449" y="96" width="140" height="104" as="geometry" />
        </mxCell>
        <mxCell id="7DqschOIdNKJVq1KGkAt-10" value="YouTube" style="text;strokeColor=none;fillColor=none;align=left;verticalAlign=top;spacingLeft=4;spacingRight=4;overflow=hidden;rotatable=0;points=[[0,0.5],[1,0.5]];portConstraint=eastwest;whiteSpace=wrap;html=1;" vertex="1" parent="7DqschOIdNKJVq1KGkAt-9">
          <mxGeometry y="26" width="140" height="26" as="geometry" />
        </mxCell>
        <mxCell id="7DqschOIdNKJVq1KGkAt-11" value="Spotify" style="text;strokeColor=none;fillColor=none;align=left;verticalAlign=top;spacingLeft=4;spacingRight=4;overflow=hidden;rotatable=0;points=[[0,0.5],[1,0.5]];portConstraint=eastwest;whiteSpace=wrap;html=1;" vertex="1" parent="7DqschOIdNKJVq1KGkAt-9">
          <mxGeometry y="52" width="140" height="26" as="geometry" />
        </mxCell>
        <mxCell id="7DqschOIdNKJVq1KGkAt-12" value="Tidal" style="text;strokeColor=none;fillColor=none;align=left;verticalAlign=top;spacingLeft=4;spacingRight=4;overflow=hidden;rotatable=0;points=[[0,0.5],[1,0.5]];portConstraint=eastwest;whiteSpace=wrap;html=1;" vertex="1" parent="7DqschOIdNKJVq1KGkAt-9">
          <mxGeometry y="78" width="140" height="26" as="geometry" />
        </mxCell>
        <mxCell id="7DqschOIdNKJVq1KGkAt-43" value="" style="edgeStyle=orthogonalEdgeStyle;rounded=0;orthogonalLoop=1;jettySize=auto;html=1;" edge="1" parent="WIyWlLk6GJQsqaUBKTNV-1" source="7DqschOIdNKJVq1KGkAt-13" target="7DqschOIdNKJVq1KGkAt-42">
          <mxGeometry relative="1" as="geometry" />
        </mxCell>
        <mxCell id="7DqschOIdNKJVq1KGkAt-49" style="edgeStyle=orthogonalEdgeStyle;rounded=0;orthogonalLoop=1;jettySize=auto;html=1;exitX=0.5;exitY=1;exitDx=0;exitDy=0;" edge="1" parent="WIyWlLk6GJQsqaUBKTNV-1" source="7DqschOIdNKJVq1KGkAt-13" target="7DqschOIdNKJVq1KGkAt-17">
          <mxGeometry relative="1" as="geometry" />
        </mxCell>
        <mxCell id="7DqschOIdNKJVq1KGkAt-13" value="content&lt;br&gt;type&lt;br&gt;match" style="rhombus;whiteSpace=wrap;html=1;rounded=0;" vertex="1" parent="WIyWlLk6GJQsqaUBKTNV-1">
          <mxGeometry x="339" y="200" width="80" height="80" as="geometry" />
        </mxCell>
        <mxCell id="7DqschOIdNKJVq1KGkAt-17" value="Type" style="swimlane;fontStyle=0;childLayout=stackLayout;horizontal=1;startSize=30;horizontalStack=0;resizeParent=1;resizeParentMax=0;resizeLast=0;collapsible=1;marginBottom=0;whiteSpace=wrap;html=1;" vertex="1" parent="WIyWlLk6GJQsqaUBKTNV-1">
          <mxGeometry x="449" y="280" width="140" height="90" as="geometry" />
        </mxCell>
        <mxCell id="7DqschOIdNKJVq1KGkAt-18" value="Song" style="text;strokeColor=none;fillColor=none;align=left;verticalAlign=middle;spacingLeft=4;spacingRight=4;overflow=hidden;points=[[0,0.5],[1,0.5]];portConstraint=eastwest;rotatable=0;whiteSpace=wrap;html=1;" vertex="1" parent="7DqschOIdNKJVq1KGkAt-17">
          <mxGeometry y="30" width="140" height="30" as="geometry" />
        </mxCell>
        <mxCell id="7DqschOIdNKJVq1KGkAt-19" value="Playlist" style="text;strokeColor=none;fillColor=none;align=left;verticalAlign=middle;spacingLeft=4;spacingRight=4;overflow=hidden;points=[[0,0.5],[1,0.5]];portConstraint=eastwest;rotatable=0;whiteSpace=wrap;html=1;" vertex="1" parent="7DqschOIdNKJVq1KGkAt-17">
          <mxGeometry y="60" width="140" height="30" as="geometry" />
        </mxCell>
        <mxCell id="7DqschOIdNKJVq1KGkAt-45" style="edgeStyle=orthogonalEdgeStyle;rounded=0;orthogonalLoop=1;jettySize=auto;html=1;exitX=0;exitY=0.25;exitDx=0;exitDy=0;entryX=1;entryY=0.5;entryDx=0;entryDy=0;startArrow=classic;startFill=1;" edge="1" parent="WIyWlLk6GJQsqaUBKTNV-1" source="7DqschOIdNKJVq1KGkAt-24" target="7DqschOIdNKJVq1KGkAt-42">
          <mxGeometry relative="1" as="geometry" />
        </mxCell>
        <mxCell id="7DqschOIdNKJVq1KGkAt-24" value="" style="swimlane;startSize=0;" vertex="1" parent="WIyWlLk6GJQsqaUBKTNV-1">
          <mxGeometry x="519" y="390" width="280" height="300" as="geometry">
            <mxRectangle x="440" y="480" width="40" height="40" as="alternateBounds" />
          </mxGeometry>
        </mxCell>
        <mxCell id="7DqschOIdNKJVq1KGkAt-35" value="" style="edgeStyle=orthogonalEdgeStyle;rounded=0;orthogonalLoop=1;jettySize=auto;html=1;" edge="1" parent="7DqschOIdNKJVq1KGkAt-24" source="7DqschOIdNKJVq1KGkAt-29" target="7DqschOIdNKJVq1KGkAt-34">
          <mxGeometry relative="1" as="geometry" />
        </mxCell>
        <mxCell id="7DqschOIdNKJVq1KGkAt-29" value="fetch raw data" style="rounded=1;whiteSpace=wrap;html=1;" vertex="1" parent="7DqschOIdNKJVq1KGkAt-24">
          <mxGeometry y="120" width="120" height="60" as="geometry" />
        </mxCell>
        <mxCell id="7DqschOIdNKJVq1KGkAt-33" value="" style="edgeStyle=orthogonalEdgeStyle;rounded=0;orthogonalLoop=1;jettySize=auto;html=1;" edge="1" parent="7DqschOIdNKJVq1KGkAt-24" source="7DqschOIdNKJVq1KGkAt-30" target="7DqschOIdNKJVq1KGkAt-29">
          <mxGeometry relative="1" as="geometry" />
        </mxCell>
        <mxCell id="7DqschOIdNKJVq1KGkAt-30" value="authenticate&lt;br&gt;user" style="rounded=1;whiteSpace=wrap;html=1;" vertex="1" parent="7DqschOIdNKJVq1KGkAt-24">
          <mxGeometry x="160" y="40" width="120" height="60" as="geometry" />
        </mxCell>
        <mxCell id="7DqschOIdNKJVq1KGkAt-32" style="edgeStyle=orthogonalEdgeStyle;rounded=0;orthogonalLoop=1;jettySize=auto;html=1;entryX=0.5;entryY=0;entryDx=0;entryDy=0;exitX=0.5;exitY=0;exitDx=0;exitDy=0;" edge="1" parent="7DqschOIdNKJVq1KGkAt-24" target="7DqschOIdNKJVq1KGkAt-29">
          <mxGeometry relative="1" as="geometry">
            <mxPoint x="140" as="sourcePoint" />
            <Array as="points">
              <mxPoint x="60" />
            </Array>
          </mxGeometry>
        </mxCell>
        <mxCell id="7DqschOIdNKJVq1KGkAt-34" value="parse data" style="rounded=1;whiteSpace=wrap;html=1;" vertex="1" parent="7DqschOIdNKJVq1KGkAt-24">
          <mxGeometry y="240" width="120" height="60" as="geometry" />
        </mxCell>
        <mxCell id="7DqschOIdNKJVq1KGkAt-47" value="" style="edgeStyle=orthogonalEdgeStyle;rounded=0;orthogonalLoop=1;jettySize=auto;html=1;" edge="1" parent="WIyWlLk6GJQsqaUBKTNV-1" source="7DqschOIdNKJVq1KGkAt-42" target="7DqschOIdNKJVq1KGkAt-46">
          <mxGeometry relative="1" as="geometry" />
        </mxCell>
        <mxCell id="7DqschOIdNKJVq1KGkAt-42" value="fetch external&lt;br&gt;resources" style="rounded=0;whiteSpace=wrap;html=1;" vertex="1" parent="WIyWlLk6GJQsqaUBKTNV-1">
          <mxGeometry x="319" y="390" width="120" height="60" as="geometry" />
        </mxCell>
        <mxCell id="7DqschOIdNKJVq1KGkAt-53" value="" style="edgeStyle=orthogonalEdgeStyle;rounded=0;orthogonalLoop=1;jettySize=auto;html=1;" edge="1" parent="WIyWlLk6GJQsqaUBKTNV-1" source="7DqschOIdNKJVq1KGkAt-46" target="7DqschOIdNKJVq1KGkAt-52">
          <mxGeometry relative="1" as="geometry" />
        </mxCell>
        <mxCell id="7DqschOIdNKJVq1KGkAt-46" value="save data on disk" style="whiteSpace=wrap;html=1;rounded=0;" vertex="1" parent="WIyWlLk6GJQsqaUBKTNV-1">
          <mxGeometry x="319" y="530" width="120" height="60" as="geometry" />
        </mxCell>
        <mxCell id="7DqschOIdNKJVq1KGkAt-59" value="" style="edgeStyle=orthogonalEdgeStyle;rounded=0;orthogonalLoop=1;jettySize=auto;html=1;" edge="1" parent="WIyWlLk6GJQsqaUBKTNV-1" source="7DqschOIdNKJVq1KGkAt-52" target="7DqschOIdNKJVq1KGkAt-56">
          <mxGeometry relative="1" as="geometry" />
        </mxCell>
        <mxCell id="7DqschOIdNKJVq1KGkAt-60" value="" style="edgeStyle=orthogonalEdgeStyle;rounded=0;orthogonalLoop=1;jettySize=auto;html=1;" edge="1" parent="WIyWlLk6GJQsqaUBKTNV-1" source="7DqschOIdNKJVq1KGkAt-52" target="7DqschOIdNKJVq1KGkAt-57">
          <mxGeometry relative="1" as="geometry" />
        </mxCell>
        <mxCell id="7DqschOIdNKJVq1KGkAt-52" value="content&lt;br&gt;type&lt;br&gt;switch" style="rhombus;whiteSpace=wrap;html=1;rounded=0;" vertex="1" parent="WIyWlLk6GJQsqaUBKTNV-1">
          <mxGeometry x="339" y="660" width="80" height="80" as="geometry" />
        </mxCell>
        <mxCell id="7DqschOIdNKJVq1KGkAt-75" value="" style="edgeStyle=orthogonalEdgeStyle;rounded=0;orthogonalLoop=1;jettySize=auto;html=1;" edge="1" parent="WIyWlLk6GJQsqaUBKTNV-1" source="7DqschOIdNKJVq1KGkAt-56" target="7DqschOIdNKJVq1KGkAt-74">
          <mxGeometry relative="1" as="geometry" />
        </mxCell>
        <mxCell id="7DqschOIdNKJVq1KGkAt-56" value="Song" style="rounded=0;whiteSpace=wrap;html=1;" vertex="1" parent="WIyWlLk6GJQsqaUBKTNV-1">
          <mxGeometry x="229" y="750" width="60" height="30" as="geometry" />
        </mxCell>
        <mxCell id="7DqschOIdNKJVq1KGkAt-68" value="" style="edgeStyle=orthogonalEdgeStyle;rounded=0;orthogonalLoop=1;jettySize=auto;html=1;" edge="1" parent="WIyWlLk6GJQsqaUBKTNV-1" source="7DqschOIdNKJVq1KGkAt-57" target="7DqschOIdNKJVq1KGkAt-67">
          <mxGeometry relative="1" as="geometry" />
        </mxCell>
        <mxCell id="7DqschOIdNKJVq1KGkAt-71" style="edgeStyle=orthogonalEdgeStyle;rounded=0;orthogonalLoop=1;jettySize=auto;html=1;exitX=0.5;exitY=1;exitDx=0;exitDy=0;entryX=0.5;entryY=0;entryDx=0;entryDy=0;" edge="1" parent="WIyWlLk6GJQsqaUBKTNV-1" source="7DqschOIdNKJVq1KGkAt-57" target="7DqschOIdNKJVq1KGkAt-70">
          <mxGeometry relative="1" as="geometry" />
        </mxCell>
        <mxCell id="7DqschOIdNKJVq1KGkAt-57" value="Playlist" style="rounded=0;whiteSpace=wrap;html=1;" vertex="1" parent="WIyWlLk6GJQsqaUBKTNV-1">
          <mxGeometry x="463" y="750" width="60" height="30" as="geometry" />
        </mxCell>
        <mxCell id="7DqschOIdNKJVq1KGkAt-69" style="edgeStyle=orthogonalEdgeStyle;rounded=0;orthogonalLoop=1;jettySize=auto;html=1;exitX=0;exitY=0.5;exitDx=0;exitDy=0;entryX=1;entryY=0.5;entryDx=0;entryDy=0;" edge="1" parent="WIyWlLk6GJQsqaUBKTNV-1" source="7DqschOIdNKJVq1KGkAt-67" target="7DqschOIdNKJVq1KGkAt-56">
          <mxGeometry relative="1" as="geometry" />
        </mxCell>
        <mxCell id="7DqschOIdNKJVq1KGkAt-67" value="for each song in playlist" style="shape=parallelogram;perimeter=parallelogramPerimeter;whiteSpace=wrap;html=1;fixedSize=1;" vertex="1" parent="WIyWlLk6GJQsqaUBKTNV-1">
          <mxGeometry x="379" y="830" width="120" height="60" as="geometry" />
        </mxCell>
        <mxCell id="7DqschOIdNKJVq1KGkAt-70" value="save playlist as file" style="rounded=0;whiteSpace=wrap;html=1;" vertex="1" parent="WIyWlLk6GJQsqaUBKTNV-1">
          <mxGeometry x="519" y="830" width="120" height="60" as="geometry" />
        </mxCell>
        <mxCell id="7DqschOIdNKJVq1KGkAt-77" value="" style="edgeStyle=orthogonalEdgeStyle;rounded=0;orthogonalLoop=1;jettySize=auto;html=1;" edge="1" parent="WIyWlLk6GJQsqaUBKTNV-1" source="7DqschOIdNKJVq1KGkAt-74" target="7DqschOIdNKJVq1KGkAt-76">
          <mxGeometry relative="1" as="geometry" />
        </mxCell>
        <mxCell id="7DqschOIdNKJVq1KGkAt-78" value="YES" style="edgeLabel;html=1;align=center;verticalAlign=middle;resizable=0;points=[];" vertex="1" connectable="0" parent="7DqschOIdNKJVq1KGkAt-77">
          <mxGeometry x="-0.14" y="1" relative="1" as="geometry">
            <mxPoint as="offset" />
          </mxGeometry>
        </mxCell>
        <mxCell id="7DqschOIdNKJVq1KGkAt-80" value="" style="edgeStyle=orthogonalEdgeStyle;rounded=0;orthogonalLoop=1;jettySize=auto;html=1;" edge="1" parent="WIyWlLk6GJQsqaUBKTNV-1" source="7DqschOIdNKJVq1KGkAt-74" target="7DqschOIdNKJVq1KGkAt-79">
          <mxGeometry relative="1" as="geometry" />
        </mxCell>
        <mxCell id="7DqschOIdNKJVq1KGkAt-81" value="NO" style="edgeLabel;html=1;align=center;verticalAlign=middle;resizable=0;points=[];" vertex="1" connectable="0" parent="7DqschOIdNKJVq1KGkAt-80">
          <mxGeometry x="-0.0933" y="4" relative="1" as="geometry">
            <mxPoint as="offset" />
          </mxGeometry>
        </mxCell>
        <mxCell id="7DqschOIdNKJVq1KGkAt-74" value="song&lt;br&gt;already&lt;br&gt;exists" style="rhombus;whiteSpace=wrap;html=1;rounded=0;" vertex="1" parent="WIyWlLk6GJQsqaUBKTNV-1">
          <mxGeometry x="219" y="835" width="80" height="80" as="geometry" />
        </mxCell>
        <mxCell id="7DqschOIdNKJVq1KGkAt-76" value="Update differing fields" style="rounded=0;whiteSpace=wrap;html=1;" vertex="1" parent="WIyWlLk6GJQsqaUBKTNV-1">
          <mxGeometry x="29" y="845" width="120" height="60" as="geometry" />
        </mxCell>
        <mxCell id="7DqschOIdNKJVq1KGkAt-79" value="Append song to Archive playlist" style="whiteSpace=wrap;html=1;rounded=0;" vertex="1" parent="WIyWlLk6GJQsqaUBKTNV-1">
          <mxGeometry x="199" y="990" width="120" height="60" as="geometry" />
        </mxCell>
      </root>
    </mxGraphModel>
  </diagram>
</mxfile>
